<svg xmlns="http://www.w3.org/2000/svg" version="1.1" xmlns:xlink="http://www.w3.org/1999/xlink" xmlns:svgjs="http://svgjs.com/svgjs" width="10" height="10"><svg xmlns="http://www.w3.org/2000/svg" viewBox="0 0 10 10"><defs><style>.d{fill:#010101}</style></defs><g id="SvgjsG1001"><g id="SvgjsG1000"><path class="d" d="M5 10c-2.76 0-5-2.25-5-5s2.24-5 5-5 5 2.24 5 5-2.24 5-5 5ZM5 .37C2.45.37.37 2.45.37 5s2.07 4.62 4.62 4.62S9.61 7.55 9.61 5 7.55.37 5 .37Z"></path><path class="d" d="M5 .83C2.7.83.83 2.7.83 5S2.7 9.17 5 9.17 9.17 7.3 9.17 5 7.3.83 5 .83Zm-.7 6.68C3.02 7.51 1.98 6.39 1.98 5S3.02 2.49 4.3 2.49c.34 0 .66.08.95.22-.14-.06-.29-.1-.45-.1-.84 0-1.53 1.07-1.53 2.39s.67 2.36 1.52 2.36c.26 0 .47-.15.45-.15a.58.58 0 1 1 .35-.12h-.01c-.37.27-.8.42-1.28.42Zm2.03 0c-.34 0-.65-.08-.92-.23.81 0 1.47-.63 1.47-1.4 0-.34-.12-1.03-.9-1.31S4.75 4.1 4.75 3.56c0-.59.76-1.06 1.71-1.06s1.71.48 1.71 1.06c0 .22-.11.42-.29.59a.58.58 0 0 1-.98-.42c0-.29.22-.54.5-.57-.15-.36-.52-.62-.95-.62-.56 0-1.02.62-1.02.98s.23.77.61.9 2.01.26 2.01 1.59c0 .83-.78 1.51-1.73 1.51Z"></path></g></g></svg><style>@media (prefers-color-scheme: light) { :root { filter: contrast(1) brightness(0.8); } }
</style></svg>