<svg width="700pt" height="700pt" viewBox="0 0 700 700" xmlns="http://www.w3.org/2000/svg" xmlns:xlink="http://www.w3.org/1999/xlink"><defs><symbol id="a" overflow="visible"><path d="M4.64-.281a3.353 3.353 0 0 1-1.546.375c-.844 0-1.516-.235-2.016-.703C.586-1.08.344-1.72.344-2.531c0-.801.242-1.438.734-1.906.5-.477 1.172-.72 2.016-.72.281 0 .547.04.797.11.257.063.507.156.75.281v1.047a2.749 2.749 0 0 0-.72-.36 2.18 2.18 0 0 0-.734-.124c-.46 0-.824.152-1.093.453-.274.293-.407.7-.407 1.219 0 .531.133.95.407 1.25.27.293.632.437 1.093.437.258 0 .504-.035.735-.109.238-.082.476-.207.719-.375z"/></symbol><symbol id="b" overflow="visible"><path d="M3.406-2.766a3.613 3.613 0 0 0-.328-.093 1.103 1.103 0 0 0-.312-.047c-.313 0-.555.101-.72.297-.167.199-.25.484-.25.859V0H.579v-3.797h1.219v.625c.156-.25.332-.43.531-.547.207-.113.453-.172.734-.172.04 0 .082.008.125.016.051 0 .118.008.204.016z"/></symbol><symbol id="c" overflow="visible"><path d="M4.375-1.906v.344H1.531c.031.28.133.496.313.64.175.149.422.219.734.219.258 0 .52-.035.781-.11a4.29 4.29 0 0 0 .828-.359v.938c-.28.117-.57.199-.859.25a4.85 4.85 0 0 1-.86.078C1.782.094 1.243-.078.86-.422.484-.773.297-1.266.297-1.89s.187-1.113.562-1.468c.375-.352.89-.532 1.547-.532.594 0 1.067.184 1.422.547.363.356.547.836.547 1.438zm-1.25-.406c0-.227-.07-.41-.203-.547a.698.698 0 0 0-.531-.22c-.23 0-.418.071-.563.204-.148.125-.242.313-.281.563z"/></symbol><symbol id="d" overflow="visible"><path d="M2.281-1.703c-.25 0-.445.043-.578.125a.427.427 0 0 0-.187.375c0 .156.05.281.156.375.101.086.25.125.437.125a.717.717 0 0 0 .563-.25.85.85 0 0 0 .234-.61v-.14zm1.86-.469V0H2.906v-.562c-.156.23-.34.398-.547.5-.199.101-.445.156-.734.156C1.227.094.906-.02.656-.25c-.242-.227-.36-.523-.36-.89 0-.446.15-.77.454-.97.312-.206.797-.312 1.453-.312h.703v-.11a.429.429 0 0 0-.234-.405c-.149-.094-.375-.141-.688-.141A3.36 3.36 0 0 0 1.25-3c-.219.055-.43.133-.625.234v-.921c.258-.063.52-.11.781-.141.27-.04.535-.063.797-.063.676 0 1.164.137 1.469.407.312.273.469.71.469 1.312z"/></symbol><symbol id="e" overflow="visible"><path d="M1.906-4.875v1.078h1.25v.875h-1.25v1.61c0 .18.031.296.094.359.07.055.21.078.422.078h.625V0H2.016C1.536 0 1.19-.098.984-.297.785-.492.688-.832.688-1.312v-1.61H.094v-.875h.594v-1.078z"/></symbol><symbol id="f" overflow="visible"><path d="M3.156-3.234v-2.032h1.235V0H3.156v-.547a1.695 1.695 0 0 1-.547.484 1.53 1.53 0 0 1-.703.157c-.46 0-.84-.18-1.14-.547C.46-.828.312-1.305.312-1.891c0-.582.149-1.062.454-1.437.3-.375.68-.563 1.14-.563.27 0 .504.055.703.157.196.105.38.273.547.5zM2.36-.781c.258 0 .457-.094.594-.282.133-.195.203-.472.203-.828 0-.363-.07-.64-.203-.828C2.816-2.906 2.617-3 2.36-3a.71.71 0 0 0-.593.281c-.137.188-.204.465-.204.828 0 .356.067.633.204.828a.71.71 0 0 0 .593.282z"/></symbol><symbol id="g" overflow="visible"><path d="M2.61-.781c.25 0 .44-.094.578-.281.144-.196.218-.473.218-.829 0-.363-.074-.64-.218-.828A.672.672 0 0 0 2.609-3c-.261 0-.464.094-.609.281-.137.188-.203.465-.203.828 0 .356.066.633.203.829.145.187.348.28.61.28zm-.813-2.453c.164-.227.348-.395.547-.5.207-.102.441-.157.703-.157.469 0 .851.188 1.156.563.3.375.453.855.453 1.437 0 .586-.152 1.063-.453 1.438a1.432 1.432 0 0 1-1.156.547c-.262 0-.496-.055-.703-.156a1.619 1.619 0 0 1-.547-.485V0H.578v-5.266h1.219z"/></symbol><symbol id="h" overflow="visible"><path d="M.078-3.797h1.219l1.016 2.578.875-2.578H4.39L2.797.36c-.156.426-.344.723-.563.89-.21.165-.492.25-.843.25H.687V.704h.391c.195 0 .344-.039.438-.11.093-.062.164-.179.218-.343l.047-.11z"/></symbol><symbol id="i" overflow="visible"><path d="M3.703-.922H1.672L1.344 0H.03l1.875-5.063H3.47L5.329 0H4.03zm-1.719-.937h1.39l-.687-2.016z"/></symbol><symbol id="j" overflow="visible"><path d="M4.094-3.156c.156-.238.336-.422.547-.547.218-.125.453-.188.703-.188.437 0 .77.137 1 .407.226.273.344.664.344 1.172V0H5.453v-1.984a.212.212 0 0 0 .016-.078v-.141c0-.27-.043-.461-.125-.578-.074-.125-.2-.188-.375-.188-.23 0-.406.094-.531.282s-.196.464-.204.828V0H3.016v-1.985c0-.414-.04-.68-.11-.797-.074-.125-.199-.188-.375-.188a.61.61 0 0 0-.547.297c-.125.188-.187.461-.187.813V0H.578v-3.798h1.219v.563c.144-.22.312-.38.5-.485.195-.113.414-.172.656-.172.258 0 .488.07.688.204.195.125.347.304.453.53z"/></symbol><symbol id="k" overflow="visible"><path d="M4.39-2.313V0H3.173v-1.766c0-.332-.008-.554-.016-.671a.656.656 0 0 0-.078-.282.435.435 0 0 0-.187-.187.674.674 0 0 0-.282-.063c-.25 0-.449.102-.593.297-.149.188-.22.461-.22.813V0H.579v-5.266h1.219v2.032c.176-.227.367-.395.578-.5.207-.102.437-.157.687-.157.438 0 .766.137.985.407.226.273.344.664.344 1.172z"/></symbol><symbol id="l" overflow="visible"><path d="M3.547-3.672v.922a4.327 4.327 0 0 0-.75-.25 3.344 3.344 0 0 0-.688-.078c-.23 0-.402.031-.515.094-.117.054-.172.136-.172.25 0 .105.039.183.125.234.094.055.25.09.469.11l.203.03c.625.087 1.039.215 1.25.391.219.18.328.461.328.844 0 .406-.152.715-.453.922-.293.2-.735.297-1.328.297-.25 0-.512-.024-.782-.063A4.653 4.653 0 0 1 .422-.14v-.922c.238.118.484.204.734.266.258.063.52.094.782.094.238 0 .414-.031.53-.094.126-.07.188-.172.188-.297a.28.28 0 0 0-.125-.25c-.086-.05-.25-.094-.5-.125l-.218-.015C1.28-1.554.906-1.68.688-1.86c-.22-.188-.329-.47-.329-.844 0-.395.133-.692.407-.89.28-.196.707-.298 1.28-.298.22 0 .446.024.688.063.25.031.52.086.813.156z"/></symbol><symbol id="m" overflow="visible"><path d="M4.156-4.89v1.062a4.798 4.798 0 0 0-.812-.281 3.23 3.23 0 0 0-.75-.094c-.313 0-.543.043-.688.125-.148.086-.219.219-.219.406 0 .137.047.242.141.313.102.074.285.14.547.203l.562.11c.563.116.957.288 1.188.515.238.23.36.554.36.969 0 .562-.169.98-.5 1.25-.325.273-.829.406-1.516.406-.313 0-.633-.031-.953-.094a4.645 4.645 0 0 1-.97-.266v-1.093c.321.168.634.296.938.39.301.086.586.125.86.125.289 0 .508-.047.656-.14a.445.445 0 0 0 .234-.407.444.444 0 0 0-.156-.359c-.105-.094-.308-.172-.61-.234l-.515-.125c-.5-.102-.871-.274-1.11-.516C.614-2.863.5-3.18.5-3.578c0-.508.16-.899.484-1.172.32-.27.79-.406 1.407-.406a6.5 6.5 0 0 1 .859.062c.289.043.594.11.906.203z"/></symbol><symbol id="n" overflow="visible"><path d="M.547-1.484v-2.313h1.219v.375c0 .211-.008.469-.016.781v.625c0 .305.004.524.016.657.02.136.05.234.093.296.051.075.114.137.188.188a.596.596 0 0 0 .281.062c.25 0 .445-.097.594-.296.144-.196.219-.47.219-.813v-1.875h1.218V0H3.141v-.547c-.18.219-.371.383-.578.484-.211.102-.434.157-.672.157-.438 0-.774-.13-1-.39C.66-.567.547-.962.547-1.485z"/></symbol><symbol id="o" overflow="visible"><path d="M.578-3.797h1.219V0H.578zm0-1.469h1.219v.985H.578z"/></symbol><symbol id="p" overflow="visible"><path d="M2.39-3.016c-.273 0-.48.102-.624.297-.137.188-.204.465-.204.828 0 .368.067.649.204.844.144.188.351.281.625.281.257 0 .457-.093.593-.28.145-.196.22-.477.22-.845 0-.363-.075-.64-.22-.828a.684.684 0 0 0-.593-.297zm0-.875c.645 0 1.149.18 1.516.532.375.355.563.843.563 1.468S4.28-.773 3.906-.42c-.367.343-.87.515-1.515.515-.657 0-1.172-.172-1.547-.516C.477-.773.297-1.265.297-1.89s.18-1.113.547-1.468c.375-.352.89-.532 1.547-.532z"/></symbol><symbol id="q" overflow="visible"><path d="M3.078-5.266v.797h-.672c-.168 0-.289.032-.36.094-.062.063-.093.168-.093.313v.265h1.031v.875h-1.03V0H.733v-2.922h-.61v-.875h.61v-.265c0-.407.114-.708.344-.907.227-.195.586-.297 1.078-.297z"/></symbol><symbol id="r" overflow="visible"><path d="M.64-5.063h1.454l1.844 3.47v-3.47h1.234V0H3.719L1.875-3.469V0H.641z"/></symbol><symbol id="s" overflow="visible"><path d="M4.39-2.313V0H3.173v-1.766c0-.332-.008-.554-.016-.671a.656.656 0 0 0-.078-.282.435.435 0 0 0-.187-.187.674.674 0 0 0-.282-.063c-.25 0-.449.102-.593.297-.149.188-.22.461-.22.813V0H.579v-3.797h1.219v.563c.176-.227.367-.395.578-.5.207-.102.437-.157.687-.157.438 0 .766.137.985.407.226.273.344.664.344 1.172z"/></symbol><symbol id="t" overflow="visible"><path d="M.64-5.063h2.157c.644 0 1.14.149 1.484.438.344.281.516.688.516 1.219s-.172.945-.516 1.234c-.344.281-.84.422-1.484.422h-.86V0H.641zm1.298.954v1.406h.718c.258 0 .457-.055.594-.172.133-.125.203-.3.203-.531 0-.227-.07-.399-.203-.516-.137-.125-.336-.187-.594-.187z"/></symbol><symbol id="u" overflow="visible"><path d="M.578-3.797h1.219v3.735c0 .5-.125.882-.375 1.156-.242.27-.59.406-1.047.406h-.61V.703h.22C.21.703.366.648.452.547.535.44.578.238.578-.063zm0-1.469h1.219v.985H.578z"/></symbol><symbol id="v" overflow="visible"><path d="M3.64-3.672v.984a1.789 1.789 0 0 0-.484-.25 1.774 1.774 0 0 0-.515-.078c-.344 0-.61.102-.797.297-.188.2-.282.477-.282.828 0 .356.094.633.282.828.187.2.453.297.797.297.187 0 .363-.023.53-.078a1.46 1.46 0 0 0 .47-.265v1a2.755 2.755 0 0 1-.579.156 3.535 3.535 0 0 1-.578.047c-.687 0-1.226-.172-1.609-.516C.488-.773.297-1.266.297-1.89s.191-1.113.578-1.468c.383-.352.922-.532 1.61-.532.195 0 .39.024.577.063.196.031.391.086.579.156z"/></symbol></defs><path d="M664.14 67.723C637.933 30.907 599.636 7.625 556.31 2.168A214.856 214.856 0 0 0 529.505.496c-39.273 0-77.988 10.566-111.96 30.562-26.699 15.727-49.387 36.434-67.543 61.633-18.156-25.195-40.844-45.906-67.543-61.633C248.502 11.066 209.787.496 170.499.496c-9 0-18.016.563-26.805 1.668-43.332 5.461-81.625 28.742-107.83 65.56-32.773 46.034-43.762 109.38-30.148 173.77 11.926 56.437 57.172 118.53 134.48 184.57 57.34 48.956 130.52 97.68 195.76 130.34a31.643 31.643 0 0 0 14.047 3.304c4.863 0 9.727-1.149 14.055-3.324 65.215-32.63 138.39-81.344 195.75-130.32 77.309-66.031 122.55-128.13 134.48-184.56 13.613-64.402 2.625-127.74-30.148-173.78zm19.277 171.48c-11.41 53.984-55.426 114.01-130.83 178.41-56.711 48.418-129.05 96.578-193.51 128.83-5.59 2.809-12.555 2.805-18.16.012-64.473-32.27-136.81-80.438-193.51-128.84-75.402-64.402-119.42-124.43-130.83-178.41-12.973-61.367-2.648-121.52 28.328-165.04 24.387-34.254 59.961-55.91 100.17-60.973a203.886 203.886 0 0 1 25.418-1.582c37.305 0 74.07 10.035 106.32 29.023 27.559 16.234 50.629 38.066 68.562 64.887a5.558 5.558 0 0 0 9.234 0c17.934-26.82 41.004-48.652 68.562-64.883 32.27-18.992 69.035-29.027 106.33-29.027 8.536 0 17.086.531 25.418 1.582 40.211 5.066 75.785 26.723 100.17 60.973 30.977 43.516 41.301 103.67 28.328 165.04z"/><path d="M549.84 53.484a168.37 168.37 0 0 0-20.801-1.309c-71.293 0-134.11 44.7-160.02 113.87-2.957 7.887-10.602 13.188-19.02 13.188s-16.062-5.297-19.02-13.184c-25.918-69.176-88.727-113.87-160.01-113.87-6.875 0-13.879.438-20.824 1.309-28.816 3.64-54.441 19.352-72.152 44.234-24.41 34.309-32.309 82.812-21.672 133.08 8.926 42.285 48.883 96.145 112.51 151.65 50.789 44.305 117.55 89.797 178.6 121.7a5.56 5.56 0 0 0 5.148 0c61.043-31.898 127.81-77.395 178.6-121.7 63.625-55.508 103.58-109.37 112.51-151.65 10.637-50.266 2.739-98.773-21.672-133.08-17.715-24.883-43.34-40.594-72.164-44.238z"/><use y="580.535" xlink:href="#a"/><use x="5.098" y="580.535" xlink:href="#b"/><use x="8.52" y="580.535" xlink:href="#c"/><use x="13.23" y="580.535" xlink:href="#d"/><use x="17.918" y="580.535" xlink:href="#e"/><use x="21.238" y="580.535" xlink:href="#c"/><use x="25.945" y="580.535" xlink:href="#f"/><use x="33.336" y="580.535" xlink:href="#g"/><use x="38.309" y="580.535" xlink:href="#h"/><use x="45.25" y="580.535" xlink:href="#i"/><use x="50.625" y="580.535" xlink:href="#j"/><use x="57.863" y="580.535" xlink:href="#c"/><use x="62.57" y="580.535" xlink:href="#e"/><use x="65.891" y="580.535" xlink:href="#k"/><use x="70.836" y="580.535" xlink:href="#h"/><use x="75.363" y="580.535" xlink:href="#l"/><use x="79.496" y="580.535" xlink:href="#e"/><use x="85.234" y="580.535" xlink:href="#m"/><use x="90.234" y="580.535" xlink:href="#e"/><use x="93.555" y="580.535" xlink:href="#n"/><use x="98.5" y="580.535" xlink:href="#f"/><use x="103.469" y="580.535" xlink:href="#o"/><use x="105.852" y="580.535" xlink:href="#p"/><use y="587.48" xlink:href="#q"/><use x="3.02" y="587.48" xlink:href="#b"/><use x="6.445" y="587.48" xlink:href="#p"/><use x="11.219" y="587.48" xlink:href="#j"/><use x="20.871" y="587.48" xlink:href="#e"/><use x="24.191" y="587.48" xlink:href="#k"/><use x="29.133" y="587.48" xlink:href="#c"/><use x="36.262" y="587.48" xlink:href="#r"/><use x="42.074" y="587.48" xlink:href="#p"/><use x="46.844" y="587.48" xlink:href="#n"/><use x="51.789" y="587.48" xlink:href="#s"/><use x="59.152" y="587.48" xlink:href="#t"/><use x="64.242" y="587.48" xlink:href="#b"/><use x="67.664" y="587.48" xlink:href="#p"/><use x="72.438" y="587.48" xlink:href="#u"/><use x="74.816" y="587.48" xlink:href="#c"/><use x="79.527" y="587.48" xlink:href="#v"/><use x="83.645" y="587.48" xlink:href="#e"/></svg>