<svg xmlns="http://www.w3.org/2000/svg" viewBox="0 0 105.5 29.98"><defs><style>.d{fill:#010101}</style></defs><g id="b"><g id="c"><path class="d" d="M17.96 22.72c.59 0 1.02.13 1.36.27v-1.38c0-1.08-.56-1.51-1.33-1.51s-1.17.3-1.17.58c0 .33.3.46.3.84 0 .3-.25.55-.64.55s-.67-.36-.67-.77c0-.7.92-1.46 2.19-1.46 1.91 0 2.85.82 2.85 2.25v3.26c0 .46.19.6.5.6.19 0 .44-.07.59-.16.08-.04.22.17.16.21-.36.2-.72.3-1.16.3-.69 0-1.28-.47-1.49-1.05h-.06c-.25.67-.91 1.05-1.74 1.05-1.58 0-2.28-.81-2.28-1.78 0-1.15.94-1.81 2.6-1.81Zm.14 3.27c.63 0 1.13-.55 1.22-1.49v-1.24c-.27-.16-.66-.3-1.06-.3-.77 0-1.27.38-1.27 1.56 0 1.1.39 1.46 1.11 1.46ZM22.86 25.88h.83c.23 0 .27-.03.27-.24v-5.12c0-.21-.03-.24-.27-.24h-.64c-.06 0-.09-.01-.09-.13s.03-.13.09-.13h2.16c.23 0 .27.03.27.24 0 .2-.03.58-.06.87l.05.03c.27-.68.89-1.31 2.11-1.31 1.58 0 2.46.78 2.46 2.2v3.58c0 .21.03.24.27.24h.64c.06 0 .09.01.09.13s-.03.13-.09.13h-3.44c-.06 0-.09-.01-.09-.13s.03-.13.09-.13h.72c.23 0 .27-.03.27-.24v-3.74c0-1.28-.59-1.73-1.38-1.73s-1.42.65-1.6 1.62v3.85c0 .21.03.24.27.24h.72c.06 0 .09.01.09.13s-.03.13-.09.13h-3.63c-.06 0-.09-.01-.09-.13s.03-.13.09-.13ZM31.29 20.02h3.52s.08.01.08.13-.03.13-.09.13h-.81c-.23 0-.25.03-.16.24l1.28 2.92c.16.36.39.97.56 1.41h.06l.95-2.46c.72-1.85.58-2.05-.52-2.1-.06 0-.09-.03-.09-.13 0-.11.03-.13.09-.13h2.46c.06 0 .09.01.09.13 0 .1-.05.13-.09.13-.67.06-.84.21-1.63 2.18l-2.38 5.94c-.48 1.19-.92 1.58-1.69 1.58s-1.22-.5-1.22-1.1c0-.5.45-.87.86-.87.36 0 .56.19.56.51 0 .38-.47.6-.47.87 0 .16.11.33.34.33.52 0 .89-.28 1.36-1.44l.84-2.1h-.36c-.09 0-.11-.03-.16-.11l-2.44-5.55c-.09-.21-.12-.24-.36-.24h-.61s-.08-.01-.08-.13.03-.13.08-.13ZM42.55 26.31c-1.96 0-3.44-1.37-3.44-3.23s1.47-3.23 3.44-3.23 3.44 1.35 3.44 3.23-1.49 3.23-3.44 3.23Zm-1.05-.64c.28.26.61.38 1.05.38s.77-.13 1.05-.38c.47-.43.72-1.21.72-2.59s-.25-2.16-.72-2.59c-.28-.26-.61-.38-1.05-.38s-.77.13-1.05.38c-.47.43-.72 1.21-.72 2.59s.25 2.16.72 2.59ZM46.89 25.88h.83c.23 0 .27-.03.27-.24v-5.12c0-.21-.03-.24-.27-.24h-.64c-.06 0-.09-.01-.09-.13s.03-.13.09-.13h2.16c.23 0 .27.03.27.24 0 .2-.03.58-.06.87l.05.03c.27-.68.89-1.31 2.11-1.31 1.58 0 2.46.78 2.46 2.2v3.58c0 .21.03.24.27.24h.64c.06 0 .09.01.09.13s-.03.13-.09.13h-3.44c-.06 0-.09-.01-.09-.13s.03-.13.09-.13h.72c.23 0 .27-.03.27-.24v-3.74c0-1.28-.59-1.73-1.38-1.73s-1.42.65-1.6 1.62v3.85c0 .21.03.24.27.24h.72c.06 0 .09.01.09.13s-.03.13-.09.13h-3.63c-.06 0-.09-.01-.09-.13s.03-.13.09-.13Z"/><g><path class="d" d="M76.46 22.28c-.36 0-.59-.24-.59-.53 0-.38.31-.55.31-.92s-.39-.73-1.17-.73c-.44 0-.77.13-1.05.38-.47.43-.72 1.21-.72 2.59s.25 2.09.72 2.52c.28.26.72.4 1.16.4.94 0 1.58-.67 2.03-1.35.05-.07.27.04.23.11-.47.82-1.36 1.55-2.5 1.55-1.83 0-3.32-1.37-3.32-3.23s1.47-3.23 3.44-3.23c1.17 0 2.3.73 2.3 1.61 0 .5-.47.82-.84.82ZM81.79 19.85c1.78 0 2.78 1.35 2.78 2.74 0 .18-.06.23-.25.23h-4.18v.26c0 1.38.25 2.09.72 2.52.28.26.72.4 1.16.4 1.02 0 1.77-.68 2.21-1.35.05-.07.27.04.24.11-.42.82-1.44 1.55-2.67 1.55-1.83 0-3.32-1.37-3.32-3.23s1.56-3.23 3.32-3.23Zm-1.02.58c-.5.46-.64 1.21-.64 2.15h2.64c.22 0 .28-.01.28-.16 0-1.14-.12-1.68-.52-2.03-.22-.2-.53-.3-.84-.3s-.67.11-.92.34ZM85.62 25.88h.83c.23 0 .27-.03.27-.24v-5.12c0-.21-.03-.24-.27-.24h-.64c-.06 0-.09-.01-.09-.13s.03-.13.09-.13h2.16c.23 0 .27.03.27.24 0 .2-.03.58-.06.87l.05.03c.27-.68.89-1.31 2.11-1.31 1.58 0 2.46.78 2.46 2.2v3.58c0 .21.03.24.27.24h.64c.06 0 .09.01.09.13s-.03.13-.09.13h-3.44c-.06 0-.09-.01-.09-.13s.03-.13.09-.13h.72c.23 0 .27-.03.27-.24v-3.74c0-1.28-.59-1.73-1.38-1.73s-1.42.65-1.6 1.62v3.85c0 .21.03.24.27.24h.72c.06 0 .09.01.09.13s-.03.13-.09.13h-3.63c-.06 0-.09-.01-.09-.13s.03-.13.09-.13ZM94.63 20.02h.95v-.13c0-.06.02-.1.06-.16.45-.58.78-1.14 1.09-1.75.08-.14.11-.17.2-.17.12 0 .19.03.19.24v1.96h1.74c.06 0 .09.01.09.13s-.03.13-.09.13h-1.74v4.71c0 .63.23.84.66.84.36 0 .75-.26 1.1-.85.05-.09.3.01.25.1-.42.85-1.02 1.24-1.8 1.24-1.11 0-1.75-.64-1.75-1.92v-4.11h-.95c-.06 0-.09-.01-.09-.13s.03-.13.09-.13ZM102.91 19.85c.84 0 1.19.36 1.47.36.16 0 .22-.07.33-.19.05-.06.09-.08.17-.08s.11.04.11.11v1.59s-.06.09-.14.09-.12-.03-.14-.09c-.28-1.07-.81-1.54-1.8-1.54-.7 0-1.11.38-1.11.95 0 .46.33.91 1.56 1.28 1.53.46 2.14 1.14 2.14 2.02 0 1.14-.89 1.95-2.47 1.95-1 0-1.34-.4-1.83-.4-.16 0-.27.07-.41.23-.05.06-.09.09-.17.09s-.11-.04-.11-.11v-2.2s.05-.08.14-.08c.11 0 .12.04.14.08.31 1.38 1.03 2.15 2.24 2.15.92 0 1.47-.46 1.47-1.12s-.42-1.08-1.63-1.44c-1.44-.43-2.08-1.01-2.08-1.98 0-1.05.99-1.66 2.11-1.66Z"/></g><path class="d" d="M7.65 14.17c1.3 0 2.35.22 3.55.76.57.26.91.44 1.25.44.37 0 .52-.22.65-.82.03-.16.08-.2.26-.2.21 0 .24.06.24.22v4.53c0 .06-.1.12-.24.12s-.23-.04-.23-.12c-.52-3.41-2.43-4.57-5.48-4.57-1.2 0-2.45.4-3.31 1.06-1.46 1.12-2.48 3.23-2.48 6.16s1.02 5.04 2.48 6.16c.86.66 2.11 1.06 3.31 1.06 3.63 0 5.19-1.42 5.77-5.06 0-.08.1-.12.23-.12.1 0 .23.04.23.12v5.02c0 .16-.03.22-.23.22-.18 0-.23-.04-.26-.2-.13-.6-.29-.88-.71-.88-.26 0-.76.26-1.3.5-1.17.5-2.19.76-3.73.76-4.07 0-7.65-3.17-7.65-7.58s3.58-7.58 7.65-7.58ZM64.9 13.54c1.23 0 2.07.28 2.96.82.31.18.53.34.82.34.34 0 .46-.26.58-.86.02-.16.07-.2.24-.2.19 0 .22.06.22.22v4.25c0 .06-.1.12-.22.12s-.19-.04-.22-.12c-.48-2.73-1.76-4.21-4.39-4.21-1.73 0-3.18.98-3.18 2.69 0 1.91 1.23 2.69 3.93 3.63 3.42 1.2 4.87 2.53 4.87 4.45 0 2.37-2.05 4.03-5.13 4.03-1.04 0-2.14-.18-3.45-.86-.34-.18-.6-.28-.92-.28-.46 0-.7.24-.82.84-.02.16-.07.2-.24.2-.19 0-.22-.06-.22-.22v-5.1c0-.06.07-.12.22-.12.17 0 .22.06.22.12.48 3.29 1.93 5.06 5.2 5.06 2.12 0 3.93-1 3.93-2.97s-1.52-2.93-4.48-3.97c-3.06-1.08-4.31-2.41-4.31-4.19 0-2.11 2.07-3.67 4.38-3.67Z"/><g><path class="d" d="M79.4 17.06c-.15 0-18.05-15.59-18.05-15.59-.34-.3-1.07-.3-1.41 0 0 0-14.66 12.44-14.88 12.18C44.83 13.39 59.12.52 59.12.52c.81-.71 2.24-.71 3.06 0 0 0 17.92 16.05 17.7 16.31-.12.14-.3.21-.47.21Z"/><path class="d" d="M27.34 17.06c-.17 0-.35-.07-.47-.21-.23-.26 14.07-13.12 14.07-13.12.81-.71 2.24-.71 3.06 0l6.15 5.38c.26.23-.56 1.17-.83.94l-6.15-5.38c-.34-.3-1.06-.3-1.41 0 0 0-14.27 12.39-14.42 12.39Z"/></g></g></g></svg>